<svg xmlns="http://www.w3.org/2000/svg" aria-hidden="true"
    style="position:absolute;width:0;height:0;overflow:hidden">
    <defs>
        <symbol id="Group" viewBox="0 0 60 32">
            <path
                d="M22.505.365a.615.615 0 0 0-.615.615v2.631c0 .34.276.615.615.615H44.86c6.232 0 11.126 4.798 11.126 11.009 0 .176.142.318.318.318h3.238a.318.318 0 0 0 .318-.318c0-8.301-6.672-14.87-15.001-14.87H22.504zM4.373 15.823a.27.27 0 0 0-.27-.27H.716a.27.27 0 0 0-.27.27c0 8.4 6.291 15.335 14.426 15.789l26.056.023c.34 0 .616-.275.616-.615v-2.818a.615.615 0 0 0-.615-.615h-25.16C9.47 27.57 4.372 22.329 4.372 15.824z" />
            <path
                d="M17.318 24.488c1.685 0 3.089-.327 4.476-1.001l.096-.09v-4.821l-.519.664a5.12 5.12 0 0 1-3.856 1.692c-2.826 0-5.664-1.826-5.664-5.317 0-2.638 1.957-5.441 5.564-5.441.72 0 2.47.17 3.953 1.745l.521.642V7.762l-.091-.091c-1.413-.708-2.854-1.052-4.497-1.052-2.81 0-5.004.74-6.751 2.261-1.108.953-2.956 3.089-2.956 6.685 0 2.659.947 4.735 2.97 6.537 1.882 1.65 3.969 2.386 6.754 2.386zM29.484 10.639h.84c.77 0 1.648.042 2.312.495.324.232.869.768.869 1.743 0 .72-.318 1.366-.844 1.768-.674.489-1.475.461-2.118.461h-1.058v-4.467zm1.886 7.71c1.989 0 3.545-.574 4.626-1.654 1.33-1.327 1.528-3.152 1.528-4.115 0-1.03-.244-3.038-1.881-4.492-1.342-1.176-2.774-1.47-4.793-1.47h-5.387v17.869h4.098v-6.138h1.81z" />
            <path
                d="M29.484 10.639v-.154h-.154v.154h.154zm3.152.495.089-.125-.003-.002-.087.127zm.025 3.511.09.124.003-.002-.094-.122zm-3.177.461h-.154v.154h.154v-.154zm6.512 1.589-.109-.109.109.109zm-.352-8.607.102-.115-.001-.001-.101.116zM25.463 6.619v-.154h-.154v.154h.154zm0 17.869h-.154v.154h.154v-.154zm4.098 0v.154h.154v-.154h-.154zm0-6.139v-.154h-.154v.154h.154zm-.077-7.556h.84v-.308h-.84v.308zm.839 0c.774 0 1.605.045 2.226.468l.173-.254c-.708-.483-1.632-.522-2.399-.522v.308zm2.223.466c.3.214.804.71.804 1.617h.308c0-1.041-.584-1.619-.933-1.868l-.179.25zm.804 1.618c0 .674-.298 1.274-.783 1.646l.187.244c.565-.433.904-1.125.904-1.891h-.308zm-.78 1.644c-.626.454-1.372.432-2.028.432v.308c.631 0 1.487.033 2.209-.49l-.181-.249zm-2.028.431h-1.058v.308h1.058v-.308zm-.904.154v-4.467h-.308v4.467h.308zm1.732 3.397c2.018 0 3.618-.583 4.735-1.699l-.218-.218c-1.045 1.045-2.559 1.609-4.517 1.609v.308zm4.735-1.699c1.374-1.371 1.574-3.248 1.574-4.224h-.308c0 .949-.197 2.723-1.483 4.006l.217.218zm1.574-4.223c0-1.047-.247-3.11-1.933-4.607l-.204.23c1.588 1.411 1.829 3.365 1.829 4.377h.308zm-1.934-4.608c-1.382-1.211-2.858-1.508-4.895-1.508v.308c2.003 0 3.39.291 4.692 1.431l.203-.231zm-4.894-1.508h-5.387v.308h5.387v-.308zm-5.542.154v17.869h.308V6.619h-.308zm.154 18.022h4.098v-.308h-4.098v.308zm4.252-.153V18.35h-.308v6.138h.308zm-.154-5.985h1.81v-.308h-1.81v.308zM49.817 15.058c-.891-.789-2.134-1.247-3.546-1.721-1.006-.35-1.56-.543-1.929-.88-.292-.248-.422-.516-.422-.871 0-.778.529-1.609 2.012-1.609 1.008 0 1.853.431 2.51 1.281l.261.337 2.164-2.754-.197-.198c-1.323-1.324-3.067-2.024-5.043-2.024-3.987 0-5.771 2.594-5.771 5.164 0 1.379.492 2.492 1.459 3.305.866.742 1.922 1.158 2.935 1.497l.114.038c.899.297 1.83.605 2.385 1.102.387.355.559.741.559 1.251 0 1.169-.921 1.955-2.291 1.955a3.656 3.656 0 0 1-3.265-2.021l-.197-.39-2.69 2.49.159.224c.858 1.215 2.794 3.253 6.121 3.253 3.667 0 6.229-2.358 6.229-5.734 0-1.931-.847-3.077-1.556-3.696z" />
        </symbol>
        <symbol id="close" viewBox="0 0 32 32">
            <path fill="#ff3e79"
                d="M16 0c8.837 0 16 7.163 16 16s-7.163 16-16 16S0 24.837 0 16 7.163 0 16 0z"
                style="fill:var(--color1, #ff3e79)" />
            <path fill="#fff"
                d="M11.035 9.806a.8.8 0 0 0-1.131 0l-.098.098a.8.8 0 0 0 0 1.131L14.771 16l-4.965 4.965a.8.8 0 0 0 0 1.131l.098.098a.8.8 0 0 0 1.131 0L16 17.229l4.965 4.965a.8.8 0 0 0 1.131 0l.098-.098a.8.8 0 0 0 0-1.131L17.229 16l4.965-4.965a.8.8 0 0 0 0-1.131l-.098-.098a.8.8 0 0 0-1.131 0L16 14.771l-4.965-4.965z"
                style="fill:var(--color2, #fff)" />
        </symbol>
        <symbol id="search" viewBox="0 0 32 32">
            <path fill="#ff3e79"
                d="M16 0c8.837 0 16 7.163 16 16s-7.163 16-16 16S0 24.837 0 16 7.163 0 16 0z"
                style="fill:var(--color1, #ff3e79)" />
            <path fill="#fff"
                d="M18.8 17.6h-.632l-.224-.216a5.2 5.2 0 0 0 1.184-4.272c-.376-2.224-2.232-4-4.472-4.272a5.204 5.204 0 0 0-5.816 5.816c.272 2.24 2.048 4.096 4.272 4.472a5.2 5.2 0 0 0 4.272-1.184l.216.224v.632l3.408 3.4a.835.835 0 0 0 1.184 0l.008-.008a.835.835 0 0 0 0-1.184L18.8 17.6zm-4.8 0c-1.992 0-3.6-1.608-3.6-3.6s1.608-3.6 3.6-3.6 3.6 1.608 3.6 3.6-1.608 3.6-3.6 3.6z"
                style="fill:var(--color2, #fff)" />
        </symbol>
        <symbol id="burger" viewBox="0 0 32 32">
            <path fill="#ff3e79"
                d="M16 0c8.837 0 16 7.163 16 16s-7.163 16-16 16S0 24.837 0 16 7.163 0 16 0z"
                style="fill:var(--color1, #ff3e79)" />
            <path fill="#fff"
                d="M8.8 10.4a.8.8 0 0 1 .8-.8h12.8a.8.8 0 1 1 0 1.6H9.6a.8.8 0 0 1-.8-.8zm0 5.6a.8.8 0 0 1 .8-.8H16a.8.8 0 1 1 0 1.6H9.6a.8.8 0 0 1-.8-.8zm.8 4.8a.8.8 0 1 0 0 1.6h9.6a.8.8 0 1 0 0-1.6H9.6z"
                style="fill:var(--color2, #fff)" />
        </symbol>
        <symbol id="repair" viewBox="0 0 32 32">
            <path fill="#ff3e79"
                d="M16 0c8.837 0 16 7.163 16 16s-7.163 16-16 16S0 24.837 0 16 7.163 0 16 0z"
                style="fill:var(--color1, #ff3e79)" />
            <path fill="#fff"
                d="m14.606 18.767.327-.327-1.373-1.374-.327.327-.164-.164c-.262-.294-.523-.458-.785-.425-.196 0-.36.131-.491.327-.196.327-.098.687-.065.916 0 .065.033.098.033.164 0 .098 0 .229-.229.262-.327.098-.752.196-1.177.425-.589.327-.981.622-1.21.916C7.935 21.384 8 22.725 8 22.79c0 .098.033.164.098.196l.883.916c.065.065.131.098.196.098h.098c.327 0 1.504-.065 2.878-1.145.294-.229.589-.621.916-1.21.229-.392.36-.818.425-1.177.065-.229.164-.229.262-.229.033 0 .098.033.163.033.131.033.262.065.425.065s.327-.033.491-.131c.196-.131.327-.294.36-.491.033-.262-.098-.523-.392-.752l-.196-.196zM21.507 11.903l.908-.442c.034-.034.101-.068.134-.102l1.379-1.87c.101-.136.101-.34-.034-.442l-.941-.952c-.101-.102-.303-.136-.437-.034l-1.849 1.394a.469.469 0 0 0-.101.136l-.437.918-3.329 3.263 1.412 1.428 3.295-3.297z"
                style="fill:var(--color2, #fff)" />
            <path fill="#fff"
                d="M22.282 18.436c-.791-.833-1.931-1.133-3.007-.833l-5.159-5.464c.063-.3.095-.566.095-.866 0-.833-.317-1.666-.918-2.299a2.958 2.958 0 0 0-3.197-.8.434.434 0 0 0-.19.267c0 .1.032.2.095.3l1.551 1.633c.348.366.348 1 0 1.366s-.95.367-1.298 0l-1.551-1.633c-.095-.067-.19-.1-.316-.067-.095 0-.19.1-.222.2-.38 1.166-.095 2.466.728 3.332.57.633 1.393.966 2.216.966a3.2 3.2 0 0 0 .791-.1l5.191 5.464a3.471 3.471 0 0 0 .791 3.165 2.934 2.934 0 0 0 2.184.933c.348 0 .665-.067 1.013-.167.095-.033.19-.133.222-.233s0-.233-.095-.3l-1.551-1.633c-.158-.167-.285-.433-.285-.7s.095-.5.285-.7c.19-.2.411-.3.665-.3s.475.1.665.3l1.551 1.633c.095.067.19.1.285.1.095-.033.19-.1.222-.2.095-.333.158-.7.158-1.066 0-.866-.316-1.699-.918-2.299z"
                style="fill:var(--color2, #fff)" />
        </symbol>
        <symbol id="checkstatus" viewBox="0 0 32 32">
            <path fill="#ff3e79"
                d="M16 0c8.837 0 16 7.163 16 16s-7.163 16-16 16S0 24.837 0 16 7.163 0 16 0z"
                style="fill:var(--color1, #ff3e79)" />
            <path fill="#fff"
                d="M9.6 8.8v14a1.2 1.2 0 0 1 1.2 1.2h.8a1.2 1.2 0 1 1 2.4 0h.8a1.2 1.2 0 1 1 2.4 0h.8a1.2 1.2 0 1 1 2.4 0h.8a1.2 1.2 0 0 1 1.2-1.2v-14a.8.8 0 0 0-.8-.8H10.4a.8.8 0 0 0-.8.8zm7.533 8.631a3.386 3.386 0 0 1-2.469.475c-1.442-.268-2.592-1.48-2.776-2.937a3.455 3.455 0 0 1 3.995-3.865c1.442.23 2.6 1.411 2.837 2.845.146.89-.061 1.71-.491 2.393l1.687 1.679a.776.776 0 0 1-1.097 1.097l-1.687-1.687zm-3.768-2.984a1.883 1.883 0 1 1 3.765.001 1.883 1.883 0 0 1-3.765-.001z"
                style="fill:var(--color2, #fff)" />
        </symbol>
        <symbol id="call" viewBox="0 0 32 32">
            <path fill="#ff3e79"
                d="M16 0c8.837 0 16 7.163 16 16s-7.163 16-16 16S0 24.837 0 16 7.163 0 16 0z"
                style="fill:var(--color1, #ff3e79)" />
            <path fill="#fff"
                d="m10.208 18.6 2.032-.232c.488-.056.968.112 1.312.456l1.472 1.472c2.264-1.152 4.12-3 5.272-5.272l-1.48-1.48a1.592 1.592 0 0 1-.456-1.312l.232-2.016A1.601 1.601 0 0 1 20.184 8.8h1.384c.904 0 1.656.752 1.6 1.656-.424 6.832-5.888 12.288-12.712 12.712-.904.056-1.656-.696-1.656-1.6v-1.384a1.586 1.586 0 0 1 1.408-1.584z"
                style="fill:var(--color2, #fff)" />
        </symbol>
        <symbol id="chat" viewBox="0 0 32 32">
            <path fill="#ff3e79"
                d="M16 0c8.837 0 16 7.163 16 16s-7.163 16-16 16S0 24.837 0 16 7.163 0 16 0z"
                style="fill:var(--color1, #ff3e79)" />
            <path fill="#fff"
                d="M22.4 8.8H9.6c-.88 0-1.592.72-1.592 1.6L8 24.8l3.2-4h11.2c.88 0 1.6-.72 1.6-1.6v-8.8c0-.88-.72-1.6-1.6-1.6zm-5.6 8.8H12c-.44 0-.8-.36-.8-.8s.36-.8.8-.8h4.8c.44 0 .8.36.8.8s-.36.8-.8.8zm3.2-4h-8c-.44 0-.8-.36-.8-.8s.36-.8.8-.8h8c.44 0 .8.36.8.8s-.36.8-.8.8z"
                style="fill:var(--color2, #fff)" />
        </symbol>
        <symbol id="profile" viewBox="0 0 32 32">
            <path fill="#ff3e79"
                d="M16 0c8.837 0 16 7.163 16 16s-7.163 16-16 16S0 24.837 0 16 7.163 0 16 0z"
                style="fill:var(--color1, #ff3e79)" />
            <path fill="#fff"
                d="M16.4 15.2a3.6 3.6 0 1 0 0-7.2 3.6 3.6 0 0 0 0 7.2zM8.013 21.289c-.104.584.415 1.111 1.058 1.111h13.857c.664 0 1.162-.527 1.058-1.111C23.384 17.92 20.045 16 15.999 16s-7.385 1.92-7.986 5.289z"
                style="fill:var(--color2, #fff)" />
        </symbol>
        <symbol id="expand-big" viewBox="0 0 32 32">
            <path
                d="m23.53 1.124-7.529 7.53-7.53-7.53a2.13 2.13 0 1 0-3.012 3.012l8.412 8.412a3.012 3.012 0 0 0 4.259 0l8.412-8.412a2.13 2.13 0 1 0-3.012-3.012zm0 18.071-7.529 7.529-7.53-7.529a2.13 2.13 0 1 0-3.012 3.012l8.412 8.412a3.012 3.012 0 0 0 4.259 0l8.412-8.412a2.13 2.13 0 1 0-3.012-3.012z" />
        </symbol>
    </defs>
</svg>